<mxfile host="app.diagrams.net" agent="Mozilla/5.0 (Windows NT 10.0; Win64; x64) AppleWebKit/537.36 (KHTML, like Gecko) Chrome/130.0.0.0 Safari/537.36" version="24.8.3">
  <diagram name="Pagina-1" id="UycvBpeuH4pZtg9Zwm6X">
    <mxGraphModel dx="1219" dy="638" grid="1" gridSize="10" guides="1" tooltips="1" connect="1" arrows="1" fold="1" page="1" pageScale="1" pageWidth="827" pageHeight="1169" math="0" shadow="0">
      <root>
        <mxCell id="0" />
        <mxCell id="1" parent="0" />
        <mxCell id="3L4sHrvdAtwyov7OyCmZ-6" style="edgeStyle=orthogonalEdgeStyle;rounded=0;orthogonalLoop=1;jettySize=auto;html=1;entryX=0.5;entryY=0;entryDx=0;entryDy=0;" edge="1" parent="1" source="3L4sHrvdAtwyov7OyCmZ-1" target="3L4sHrvdAtwyov7OyCmZ-2">
          <mxGeometry relative="1" as="geometry">
            <Array as="points">
              <mxPoint x="310" y="180" />
            </Array>
          </mxGeometry>
        </mxCell>
        <mxCell id="3L4sHrvdAtwyov7OyCmZ-1" value="Analisi e definizione dei requisiti" style="ellipse;whiteSpace=wrap;html=1;fillColor=none;strokeColor=#0861FC;" vertex="1" parent="1">
          <mxGeometry x="130" y="150" width="120" height="70" as="geometry" />
        </mxCell>
        <mxCell id="3L4sHrvdAtwyov7OyCmZ-2" value="Progettazione del sistema e del software" style="ellipse;whiteSpace=wrap;html=1;fillColor=none;strokeColor=#0861FC;" vertex="1" parent="1">
          <mxGeometry x="250" y="200" width="120" height="70" as="geometry" />
        </mxCell>
        <mxCell id="3L4sHrvdAtwyov7OyCmZ-3" value="Implementazione e collaudo" style="ellipse;whiteSpace=wrap;html=1;fillColor=none;strokeColor=#0861FC;" vertex="1" parent="1">
          <mxGeometry x="370" y="270" width="120" height="70" as="geometry" />
        </mxCell>
        <mxCell id="3L4sHrvdAtwyov7OyCmZ-4" value="Integrazione e Deployment" style="ellipse;whiteSpace=wrap;html=1;fillColor=none;strokeColor=#0861FC;" vertex="1" parent="1">
          <mxGeometry x="490" y="330" width="120" height="70" as="geometry" />
        </mxCell>
        <mxCell id="3L4sHrvdAtwyov7OyCmZ-10" style="edgeStyle=orthogonalEdgeStyle;rounded=0;orthogonalLoop=1;jettySize=auto;html=1;entryX=0.5;entryY=1;entryDx=0;entryDy=0;" edge="1" parent="1" source="3L4sHrvdAtwyov7OyCmZ-5" target="3L4sHrvdAtwyov7OyCmZ-1">
          <mxGeometry relative="1" as="geometry">
            <Array as="points">
              <mxPoint x="190" y="430" />
            </Array>
          </mxGeometry>
        </mxCell>
        <mxCell id="3L4sHrvdAtwyov7OyCmZ-5" value="Mantenimento" style="ellipse;whiteSpace=wrap;html=1;fillColor=none;strokeColor=#0861FC;" vertex="1" parent="1">
          <mxGeometry x="610" y="390" width="120" height="70" as="geometry" />
        </mxCell>
        <mxCell id="3L4sHrvdAtwyov7OyCmZ-7" style="edgeStyle=orthogonalEdgeStyle;rounded=0;orthogonalLoop=1;jettySize=auto;html=1;entryX=0.5;entryY=0;entryDx=0;entryDy=0;" edge="1" parent="1" target="3L4sHrvdAtwyov7OyCmZ-3">
          <mxGeometry relative="1" as="geometry">
            <mxPoint x="370" y="240" as="sourcePoint" />
            <mxPoint x="430" y="270" as="targetPoint" />
            <Array as="points">
              <mxPoint x="430" y="240" />
            </Array>
          </mxGeometry>
        </mxCell>
        <mxCell id="3L4sHrvdAtwyov7OyCmZ-8" style="edgeStyle=orthogonalEdgeStyle;rounded=0;orthogonalLoop=1;jettySize=auto;html=1;entryX=0.509;entryY=0.026;entryDx=0;entryDy=0;entryPerimeter=0;" edge="1" parent="1" target="3L4sHrvdAtwyov7OyCmZ-4">
          <mxGeometry relative="1" as="geometry">
            <mxPoint x="490" y="300" as="sourcePoint" />
            <mxPoint x="551" y="330" as="targetPoint" />
            <Array as="points">
              <mxPoint x="551" y="300" />
            </Array>
          </mxGeometry>
        </mxCell>
        <mxCell id="3L4sHrvdAtwyov7OyCmZ-13" value="" style="endArrow=classic;html=1;rounded=0;entryX=0.5;entryY=1;entryDx=0;entryDy=0;" edge="1" parent="1" target="3L4sHrvdAtwyov7OyCmZ-3">
          <mxGeometry width="50" height="50" relative="1" as="geometry">
            <mxPoint x="430" y="430" as="sourcePoint" />
            <mxPoint x="460" y="310" as="targetPoint" />
          </mxGeometry>
        </mxCell>
        <mxCell id="3L4sHrvdAtwyov7OyCmZ-14" value="" style="endArrow=classic;html=1;rounded=0;entryX=0.5;entryY=1;entryDx=0;entryDy=0;" edge="1" parent="1" target="3L4sHrvdAtwyov7OyCmZ-2">
          <mxGeometry width="50" height="50" relative="1" as="geometry">
            <mxPoint x="309.76" y="430" as="sourcePoint" />
            <mxPoint x="309.76" y="340" as="targetPoint" />
          </mxGeometry>
        </mxCell>
        <mxCell id="3L4sHrvdAtwyov7OyCmZ-15" value="" style="endArrow=classic;html=1;rounded=0;" edge="1" parent="1" target="3L4sHrvdAtwyov7OyCmZ-4">
          <mxGeometry width="50" height="50" relative="1" as="geometry">
            <mxPoint x="549.76" y="430" as="sourcePoint" />
            <mxPoint x="549.76" y="340" as="targetPoint" />
          </mxGeometry>
        </mxCell>
        <mxCell id="3L4sHrvdAtwyov7OyCmZ-16" style="edgeStyle=orthogonalEdgeStyle;rounded=0;orthogonalLoop=1;jettySize=auto;html=1;entryX=0.499;entryY=-0.033;entryDx=0;entryDy=0;entryPerimeter=0;exitX=1;exitY=0.5;exitDx=0;exitDy=0;" edge="1" parent="1" source="3L4sHrvdAtwyov7OyCmZ-4" target="3L4sHrvdAtwyov7OyCmZ-5">
          <mxGeometry relative="1" as="geometry">
            <Array as="points">
              <mxPoint x="670" y="365" />
            </Array>
          </mxGeometry>
        </mxCell>
      </root>
    </mxGraphModel>
  </diagram>
</mxfile>
